<svg xmlns="http://www.w3.org/2000/svg" viewBox="0 0 512 512" width="512" height="512">
  <defs>
    <linearGradient id="bgGrad" x1="0%" y1="0%" x2="100%" y2="100%">
      <stop offset="0%" stop-color="#151522" />
      <stop offset="100%" stop-color="#2D2B55" />
    </linearGradient>
    <linearGradient id="phoneGrad" x1="0%" y1="100%" x2="100%" y2="0%">
      <stop offset="0%" stop-color="#FF3366" />
      <stop offset="50%" stop-color="#FF9933" />
      <stop offset="100%" stop-color="#33CCFF" />
    </linearGradient>
  </defs>

  <!-- Background App Icon Shape -->
  <rect x="24" y="24" width="464" height="464" rx="104" fill="url(#bgGrad)" />

  <!-- Mobile Device Outline -->
  <rect x="126" y="66" width="260" height="380" rx="36" fill="#1A1A2E" stroke="url(#phoneGrad)" stroke-width="12" />
  
  <!-- Mobile screen top bar (notch/speaker) -->
  <line x1="226" y1="96" x2="286" y2="96" stroke="url(#phoneGrad)" stroke-width="8" stroke-linecap="round" />

  <!-- Left Eye: Terminal Prompt ">" -->
  <polyline points="180,185 210,205 180,225" fill="none" stroke="#33CCFF" stroke-width="16" stroke-linecap="round" stroke-linejoin="round" />
  
  <!-- Right Eye: AI Sparkle -->
  <path d="M 322 175 Q 322 205 352 205 Q 322 205 322 235 Q 322 205 292 205 Q 322 205 322 175 Z" fill="#FFD700" />

  <!-- Glad Smile -->
  <path d="M 175 265 Q 256 315 337 265" fill="none" stroke="#FF3366" stroke-width="16" stroke-linecap="round" />

  <!-- Vibe Coding Waves (Audio bars) -->
  <g stroke-linecap="round" stroke-width="10">
    <line x1="196" y1="375" x2="196" y2="400" stroke="#FF9933" />
    <line x1="226" y1="355" x2="226" y2="400" stroke="#FF3366" />
    <line x1="256" y1="340" x2="256" y2="400" stroke="#33CCFF" />
    <line x1="286" y1="360" x2="286" y2="400" stroke="#FFD700" />
    <line x1="316" y1="380" x2="316" y2="400" stroke="#FF9933" />
  </g>
</svg>